Coordinates
version=1
nRows=26
nColumns=24
inDegrees=yes

Units are S.I. units (second, meters, Newtons, ...)
Angles are in degrees.

endheader
time	pelvis_tilt	pelvis_list	pelvis_rotation	pelvis_tx	pelvis_ty	pelvis_tz	hip_flexion_r	hip_adduction_r	hip_rotation_r	knee_angle_r	ankle_angle_r	subtalar_angle_r	mtp_angle_r	hip_flexion_l	hip_adduction_l	hip_rotation_l	knee_angle_l	ankle_angle_l	subtalar_angle_l	mtp_angle_l	lumbar_extension	lumbar_bending	lumbar_rotation
      0.78333333	      2.12594610	     -1.66126724	     -1.41143500	     -0.49112971	      1.07258334	      0.36640046	      7.25727259	      6.22242437	     -4.38514235	    -12.39021156	      1.82175625	     -7.26052961	      0.91766755	     12.16934651	     -1.86366859	     -2.45462778	    -67.35285362	      3.13286840	     -6.68759112	      5.16870183	      1.55734893	      5.31870566	     -2.43858489
      0.78750000	      2.15019159	     -1.56957310	     -1.41110024	     -0.48609363	      1.07328298	      0.36657492	      6.87773248	      6.14727410	     -4.26070030	    -12.28158637	      1.92714847	     -7.30758030	      0.91336177	     12.73452658	     -1.72669147	     -2.20171511	    -67.28381625	      3.56044180	     -6.91398943	      5.13517379	      1.48920757	      5.19461079	     -2.36761333
      0.79166667	      2.18146325	     -1.47549117	     -1.41869007	     -0.48114509	      1.07396110	      0.36669569	      6.50273228	      6.06253817	     -4.14326135	    -12.19011296	      2.04870238	     -7.37269948	      0.90858345	     13.28816425	     -1.57730094	     -1.95885442	    -67.18126062	      4.02209176	     -7.18648295	      5.09882775	      1.43037984	      5.06672600	     -2.28884653
      0.79583333	      2.20409736	     -1.38138483	     -1.45027426	     -0.47608114	      1.07463299	      0.36689503	      6.12487417	      5.98601186	     -4.04475571	    -12.07736549	      2.18333067	     -7.45329955	      0.90211796	     13.81774491	     -1.43693849	     -1.75162672	    -66.99377255	      4.48504572	     -7.48978306	      5.05031702	      1.36521476	      4.95781950	     -2.19931707
      0.80000000	      2.23700817	     -1.29928078	     -1.47982972	     -0.47110707	      1.07528022	      0.36705247	      5.73968113	      5.91889182	     -3.91023127	    -11.97005611	      2.30446457	     -7.52111335	      0.89532530	     14.33250159	     -1.29880916	     -1.52226421	    -66.75929750	      4.87525086	     -7.79343256	      4.99800510	      1.29734134	      4.85371566	     -2.10645645
      0.80416667	      2.27389621	     -1.21599491	     -1.51513148	     -0.46615667	      1.07591485	      0.36719354	      5.34952697	      5.84843435	     -3.76678194	    -11.85740282	      2.42570131	     -7.59272195	      0.88799006	     14.83001470	     -1.15592835	     -1.29868685	    -66.46824942	      5.23424779	     -8.12370681	      4.94220773	      1.22677218	      4.74633688	     -2.00944679
      0.80833333	      2.31408049	     -1.14010286	     -1.56330360	     -0.46119133	      1.07653442	      0.36736332	      4.95331214	      5.78731065	     -3.62227490	    -11.74705876	      2.55045635	     -7.66785585	      0.87939960	     15.30454916	     -1.02291721	     -1.08559305	    -66.11967876	      5.56812455	     -8.49856906	      4.87716933	      1.14859912	      4.64774086	     -1.90361894
      0.81250000	      2.34937971	     -1.05805331	     -1.60937527	     -0.45630753	      1.07710298	      0.36741714	      4.56669336	      5.70673758	     -3.45546107	    -11.64182795	      2.65316770	     -7.72674243	      0.87212922	     15.77775731	     -0.86548215	     -0.85006931	    -65.71954693	      5.82458288	     -8.83513726	      4.82207510	      1.07721218	      4.56415892	     -1.81404964
      0.81666667	      2.39799817	     -0.97843828	     -1.72515102	     -0.45131464	      1.07770851	      0.36764427	      4.16594526	      5.64196979	     -3.32227664	    -11.53602650	      2.81195004	     -7.86900331	      0.85282322	     16.19382617	     -0.74051670	     -0.72513470	    -65.23550594	      6.10873164	     -9.47045927	      4.68727897	      0.95183826	      4.50479194	     -1.64188341
      0.82083333	      2.46118140	     -0.90951405	     -1.79314638	     -0.44635302	      1.07829128	      0.36780387	      3.73179743	      5.58405978	     -3.14634609	    -11.39499011	      2.92725919	     -7.94912632	      0.83119771	     16.58786968	     -0.61104060	     -0.53397198	    -64.70257434	      6.27522243	    -10.02772234	      4.53602093	      0.84939984	      4.40894553	     -1.46680928
      0.82500000	      2.48760236	     -0.87704199	     -1.81205061	     -0.44140480	      1.07877522	      0.36798190	      3.32135092	      5.57505390	     -2.95543774	    -11.21261149	      3.00955639	     -7.96700844	      0.82106055	     17.02235508	     -0.52050426	     -0.28230244	    -64.14506283	      6.43648253	    -10.37135728	      4.46160961	      0.80111912	      4.32749911	     -1.37631025
      0.82916667	      2.51604900	     -0.82234942	     -1.88103617	     -0.43642048	      1.07925276	      0.36810558	      2.91798924	      5.52900728	     -2.78904011	    -11.06453500	      3.14113590	     -8.05337070	      0.80724070	     17.41913913	     -0.40274044	     -0.08671828	    -63.51624957	      6.65695300	    -10.92387468	      4.36657283	      0.75588361	      4.24736816	     -1.26683552
      0.83333333	      2.57819657	     -0.74452950	     -2.03545363	     -0.43154528	      1.07975817	      0.36823844	      2.50727790	      5.44631585	     -2.62273790	    -10.96278188	      3.26975148	     -8.19166921	      0.77482353	     17.75283168	     -0.27172469	      0.01145481	    -62.79953581	      6.66550898	    -11.79763447	      4.15490468	      0.56258329	      4.20613270	     -1.07718405
      0.83750000	      2.60727303	     -0.72518790	     -2.04877521	     -0.42654743	      1.08017208	      0.36836658	      2.07189269	      5.44432653	     -2.43216941	    -10.74651943	      3.34081998	     -8.20157802	      0.75958772	     18.12075571	     -0.18862436	      0.27370247	    -62.07217441	      6.76232161	    -12.20040591	      4.05094312	      0.56612443	      4.14243295	     -0.97296712
      0.84166667	      2.64662485	     -0.66769889	     -2.19720653	     -0.42165548	      1.08057978	      0.36847867	      1.67654145	      5.37995722	     -2.28386133	    -10.62411795	      3.46980944	     -8.33321958	      0.72513753	     18.44211743	     -0.08027483	      0.37836845	    -61.25762812	      6.79467050	    -13.07438486	      3.83037442	      0.39206837	      4.10943480	     -0.80783644
      0.84583333	      2.69982934	     -0.62802271	     -2.27183719	     -0.41668109	      1.08097954	      0.36859249	      1.22688412	      5.34338995	     -2.10276407	    -10.42823810	      3.56014610	     -8.40256884	      0.68452146	     18.73171422	      0.01739463	      0.55816725	    -60.39034842	      6.74349552	    -13.82239424	      3.57177193	      0.31571189	      4.05627834	     -0.62774528
      0.85000000	      2.71149750	     -0.62050574	     -2.34241158	     -0.41179939	      1.08125381	      0.36870121	      0.82443031	      5.34419671	     -1.88916199	    -10.22568217	      3.62975402	     -8.45348537	      0.62570682	     19.06060952	      0.07625161	      0.75259625	    -59.49152453	      6.61885199	    -14.57731741	      3.20219825	      0.19228600	      4.04021131	     -0.43971972
      0.85416667	      2.72325726	     -0.58841747	     -2.43522368	     -0.40681119	      1.08153004	      0.36874478	      0.42594180	      5.30512841	     -1.77242628	    -10.04505864	      3.73240548	     -8.53312835	      0.59111833	     19.34810298	      0.16407575	      0.92902824	    -58.52650797	      6.74765424	    -15.12837562	      2.98829421	      0.18154716	      4.00761457	     -0.34741608
      0.85833333	      2.72890969	     -0.59163339	     -2.45458319	     -0.40177528	      1.08174630	      0.36883515	     -0.00608508	      5.32129638	     -1.58607347	     -9.78178262	      3.80357904	     -8.54584879	      0.57481395	     19.63240278	      0.21619687	      1.17133539	    -57.53186157	      6.80604895	    -15.51337954	      2.87832112	      0.24393396	      4.01478205	     -0.28683115
      0.86250000	      2.77079046	     -0.57683937	     -2.58522363	     -0.39688791	      1.08198719	      0.36890826	     -0.44054397	      5.29714191	     -1.36959921	     -9.58286757	      3.86516739	     -8.68241710	      0.50752109	     19.84759177	      0.27107979	      1.28870874	    -56.43528611	      6.43139134	    -16.63087260	      2.45017563	      0.02522082	      4.00566011	     -0.09095669
      0.86666667	      2.75617972	     -0.57420027	     -2.62665031	     -0.39182025	      1.08211318	      0.36890659	     -0.84171789	      5.29410263	     -1.26639528	     -9.34264072	      3.94509402	     -8.71768437	      0.49157200	     20.09918701	      0.33083106	      1.51520014	    -55.32672719	      6.57285703	    -16.93536306	      2.34647997	      0.11554115	      4.01316614	     -0.03811818
      0.87083333	      2.79097567	     -0.57105525	     -2.73945786	     -0.38692795	      1.08226603	      0.36896100	     -1.28122139	      5.28173165	     -1.03754546	     -9.11705434	      4.00573130	     -8.84707264	      0.42116756	     20.27929832	      0.37030077	      1.65160030	    -54.13067766	      6.21859626	    -17.95220803	      1.89068821	     -0.06979732	      4.00664274	      0.14462436
      0.87500000	      2.68302978	     -0.59156226	     -2.78783538	     -0.38189765	      1.08215619	      0.36891606	     -1.56712227	      5.30471287	     -0.98973179	     -8.89286283	      4.05268792	     -8.85858964	      0.41614940	     20.59999181	      0.39585833	      1.86090733	    -52.94497049	      6.31969651	    -18.04870099	      1.85617190	     -0.10205393	      4.07748745	      0.14835105
      0.87916667	      2.70752510	     -0.60205745	     -2.82451529	     -0.37676273	      1.08224222	      0.36892772	     -2.04361381	      5.31477191	     -0.81278892	     -8.60006605	      4.15980728	     -8.93696137	      0.39826428	     20.72795403	      0.43213342	      2.08551708	    -51.65989264	      6.35925431	    -18.54536598	      1.73193718	      0.12728949	      4.05967554	      0.22929576
      0.88333333	      2.73208922	     -0.59277527	     -2.98115993	     -0.37181648	      1.08229489	      0.36896188	     -2.47613713	      5.28403292	     -0.57210162	     -8.37448906	      4.21926438	     -9.18323973	      0.33647088	     20.83274579	      0.46183035	      2.17470348	    -50.27693744	      5.81800412	    -19.71966071	      1.31907135	     -0.09331178	      3.99318734	      0.41572416
      0.88750000	      2.67583253	     -0.64619382	     -2.98581696	     -0.36677173	      1.08213166	      0.36884876	     -2.85014168	      5.33972029	     -0.47170306	     -8.09429518	      4.25788170	     -9.18931776	      0.32185443	     21.02990311	      0.45945752	      2.43896861	    -48.93714908	      5.82258197	    -19.86925511	      1.21693175	      0.00831461	      4.12874853	      0.45117448
